<svg width="103" height="116" viewBox="0 0 103 116" fill="none" xmlns="http://www.w3.org/2000/svg">
<path d="M101.774 1.61219C100.858 0.585809 99.5514 0 98.1823 0H4.8209C3.45176 0 2.1453 0.585809 1.22933 1.61219C0.313365 2.63856 -0.120515 4.00868 0.0289326 5.37396L10.6445 101.345C10.8567 103.296 12.2306 104.928 14.1108 105.465L50.171 115.811C50.6049 115.937 51.0532 116 51.4968 116C51.9403 116 52.3886 115.937 52.8225 115.811L88.8828 105.465C90.7629 104.928 92.132 103.296 92.349 101.345L102.969 5.37396C103.124 4.00868 102.69 2.63856 101.774 1.61219ZM78.0936 48.7723L75.9435 84.0419L51.6558 92.0157L27.3682 84.0419L26.4474 67.1745H38.7407L39.0492 74.8432L51.6558 79.1376L64.2625 74.8432L65.1833 61.0452H38.1284L37.5162 48.7771H65.8003L66.7211 36.509H24.2925L23.3717 24.2361H79.6315L78.0936 48.7723Z" fill="#577CD8"/>
</svg>
