<svg width="108" height="93" viewBox="0 0 108 93" fill="none" xmlns="http://www.w3.org/2000/svg">
<path d="M6.48 0C2.91094 0 0 2.9147 0 6.48837V62.9237C3.16406 46.0607 6.70781 27.1447 6.885 26.2238C7.98188 20.6225 12.2006 17.3023 18.225 17.3023H101.52V15.1395C101.52 11.5659 98.6091 8.65116 95.04 8.65116H38.9475C38.3484 8.43151 37.1166 6.47148 36.45 5.40698C34.7878 2.75418 33.0834 0 30.24 0H6.48ZM18.225 21.6279C15.4575 21.6279 12.015 22.5995 11.1375 27.1025C10.8591 28.5049 2.44688 73.3406 0 86.3765V86.5116C0 90.0853 2.91094 93 6.48 93H90.72C94.2216 93 97.0819 90.1951 97.2 86.7144L107.932 28.5218L108 28.1163C108 24.5426 105.089 21.6279 101.52 21.6279H18.225Z" fill="#577CD8"/>
</svg>
