<svg width="128" height="146" viewBox="0 0 128 146" fill="none" xmlns="http://www.w3.org/2000/svg">
<path d="M126.476 2.02913C125.338 0.737312 123.714 0 122.013 0H5.99102C4.28957 0 2.66601 0.737312 1.52772 2.02913C0.389425 3.32095 -0.149766 5.04541 0.0359551 6.76377L13.2282 127.555C13.4918 130.011 15.1992 132.064 17.5357 132.741L62.3484 145.762C62.8876 145.921 63.4448 146 63.996 146C64.5471 146 65.1043 145.921 65.6435 145.762L110.456 132.741C112.793 132.064 114.494 130.011 114.764 127.555L127.962 6.76377C128.154 5.04541 127.615 3.32095 126.476 2.02913ZM97.7254 45.2746H44.2256L45.4957 60.7643H96.4373L92.615 106.526L64.0199 115.776L63.7384 115.685L35.4608 106.514L33.9151 87.8681H47.7663L48.3714 95.1133L64.1697 98.6536L79.6924 95.1072L81.3399 75.5288H32.8727L29.1223 30.4674H98.9715L97.7254 45.2746Z" fill="#5EDFE8"/>
</svg>
