<svg width="89" height="89" viewBox="0 0 89 89" fill="none" xmlns="http://www.w3.org/2000/svg">
<path d="M80.9091 0H8.09091C3.62068 0 0 3.62068 0 8.09091V80.9091C0 85.3793 3.62068 89 8.09091 89H80.9091C85.3793 89 89 85.3793 89 80.9091V8.09091C89 3.62068 85.3793 0 80.9091 0ZM44.5 66.2645C44.5 73.4533 40.0905 77.4826 32.7682 77.4826C25.5349 77.4826 20.9271 73.2551 20.9271 66.4183H28.7632C28.7834 68.9548 30.2964 70.5568 32.6347 70.5568C35.0377 70.5568 36.3282 69.0438 36.3282 66.1958V44.4919H44.5V66.2645ZM66.6731 77.4826C58.5458 77.4826 53.4324 73.6556 53.2948 67.466H61.0864C61.2846 69.8043 63.6188 71.293 67.0049 71.293C70.0551 71.293 72.1507 69.8245 72.1507 67.7088C72.1507 65.9288 70.7469 64.97 67.0736 64.2378L62.8461 63.3923C56.9681 62.2798 53.9421 59.0758 53.9421 54.023C53.9421 47.7445 58.9746 43.6262 66.7176 43.6262C74.2422 43.6262 79.4487 47.7 79.5822 53.6427H72.0374C71.8594 51.3732 69.6991 49.7915 66.8228 49.7915C63.9546 49.7915 62.0654 51.1507 62.0654 53.2867C62.0654 55.0465 63.4894 56.07 66.8714 56.7375L71.0058 57.5385C77.3531 58.7643 80.2011 61.6325 80.2011 66.7298C80.2052 73.4331 75.0877 77.4826 66.6731 77.4826Z" fill="#142664"/>
</svg>
