<svg width="162" height="162" viewBox="0 0 162 162" fill="none" xmlns="http://www.w3.org/2000/svg">
<path d="M139.373 18.0509L88.7797 55.6272L98.1356 33.4577L139.373 18.0509Z" fill="#E2761B" stroke="#E2761B" stroke-linecap="round" stroke-linejoin="round"/>
<path d="M22.5763 18.0509L72.7627 55.9831L63.8644 33.4577L22.5763 18.0509ZM121.169 105.153L107.695 125.797L136.525 133.729L144.814 105.61L121.169 105.153ZM17.2373 105.61L25.4746 133.729L54.3051 125.797L40.8305 105.153L17.2373 105.61Z" fill="#E4761B" stroke="#E4761B" stroke-linecap="round" stroke-linejoin="round"/>
<path d="M52.6779 70.2712L44.644 82.4238L73.2712 83.6949L72.2542 52.9322L52.6779 70.2712ZM109.271 70.2712L89.4406 52.5763L88.7796 83.6949L117.356 82.4238L109.271 70.2712ZM54.3051 125.797L71.4915 117.407L56.644 105.814L54.3051 125.797ZM90.4576 117.407L107.695 125.797L105.305 105.814L90.4576 117.407Z" fill="#E4761B" stroke="#E4761B" stroke-linecap="round" stroke-linejoin="round"/>
<path d="M107.695 125.797L90.4576 117.407L91.8305 128.644L91.6779 133.373L107.695 125.797ZM54.3051 125.797L70.322 133.373L70.2203 128.644L71.4915 117.407L54.3051 125.797Z" fill="#D7C1B3" stroke="#D7C1B3" stroke-linecap="round" stroke-linejoin="round"/>
<path d="M70.5763 98.3898L56.2373 94.1695L66.3559 89.5424L70.5763 98.3898ZM91.3729 98.3898L95.5932 89.5424L105.763 94.1695L91.3729 98.3898Z" fill="#233447" stroke="#233447" stroke-linecap="round" stroke-linejoin="round"/>
<path d="M54.3051 125.797L56.7458 105.153L40.8306 105.61L54.3051 125.797ZM105.254 105.153L107.695 125.797L121.17 105.61L105.254 105.153ZM117.356 82.4237L88.7797 83.6949L91.4238 98.3898L95.6441 89.5424L105.814 94.1695L117.356 82.4237ZM56.2373 94.1695L66.4068 89.5424L70.5763 98.3898L73.2712 83.6949L44.6441 82.4237L56.2373 94.1695Z" fill="#CD6116" stroke="#CD6116" stroke-linecap="round" stroke-linejoin="round"/>
<path d="M44.644 82.4237L56.644 105.814L56.2373 94.1695L44.644 82.4237ZM105.814 94.1695L105.305 105.814L117.356 82.4237L105.814 94.1695ZM73.2712 83.6949L70.5762 98.3898L73.9322 115.729L74.6949 92.8983L73.2712 83.6949ZM88.7796 83.6949L87.4067 92.8474L88.0169 115.729L91.4237 98.3898L88.7796 83.6949Z" fill="#E4751F" stroke="#E4751F" stroke-linecap="round" stroke-linejoin="round"/>
<path d="M91.4237 98.3898L88.017 115.729L90.4576 117.407L105.305 105.814L105.814 94.1694L91.4237 98.3898ZM56.2373 94.1694L56.6441 105.814L71.4915 117.407L73.9322 115.729L70.5763 98.3898L56.2373 94.1694Z" fill="#F6851B" stroke="#F6851B" stroke-linecap="round" stroke-linejoin="round"/>
<path d="M91.6779 133.373L91.8305 128.644L90.5593 127.525H71.3898L70.2203 128.644L70.322 133.373L54.3051 125.797L59.8983 130.373L71.2373 138.254H90.7118L102.102 130.373L107.695 125.797L91.6779 133.373Z" fill="#C0AD9E" stroke="#C0AD9E" stroke-linecap="round" stroke-linejoin="round"/>
<path d="M90.4576 117.407L88.0169 115.729H73.9322L71.4915 117.407L70.2203 128.644L71.3898 127.525H90.5593L91.8305 128.644L90.4576 117.407Z" fill="#161616" stroke="#161616" stroke-linecap="round" stroke-linejoin="round"/>
<path d="M141.508 58.0679L145.83 37.3221L139.373 18.0509L90.4576 54.356L109.271 70.2712L135.864 78.0509L141.763 71.1865L139.22 69.356L143.288 65.6441L140.136 63.2034L144.203 60.1017L141.508 58.0679ZM16.1694 37.3221L20.4915 58.0679L17.7457 60.1017L21.8135 63.2034L18.7118 65.6441L22.7796 69.356L20.2372 71.1865L26.0847 78.0509L52.6779 70.2712L71.4915 54.356L22.5762 18.0509L16.1694 37.3221Z" fill="#763D16" stroke="#763D16" stroke-linecap="round" stroke-linejoin="round"/>
<path d="M135.864 78.0509L109.271 70.2712L117.356 82.4237L105.305 105.814L121.169 105.61H144.814L135.864 78.0509ZM52.678 70.2712L26.0848 78.0509L17.2373 105.61H40.8305L56.6441 105.814L44.6441 82.4237L52.678 70.2712ZM88.7797 83.6949L90.4576 54.3559L98.1865 33.4576H63.8644L71.4915 54.3559L73.2712 83.6949L73.8814 92.9492L73.9322 115.729H88.017L88.1187 92.9492L88.7797 83.6949Z" fill="#F6851B" stroke="#F6851B" stroke-linecap="round" stroke-linejoin="round"/>
</svg>
