<svg width="101" height="100" viewBox="0 0 101 100" fill="none" xmlns="http://www.w3.org/2000/svg">
<path d="M46.8105 0C20.9866 0 0 20.9866 0 46.8105C0 72.6344 20.9866 93.621 46.8105 93.621C51.1907 93.621 55.4711 92.9893 59.577 91.8257V83.6139C56.3937 86.6892 52.7865 88.659 48.9383 89.1993V72.3435H59.577V68.088H48.9383V48.9383H59.577V44.6828H48.9383V25.533H68.8776C70.7809 31.0269 71.9861 37.2772 72.2521 43.9597L74.4713 46.0458L76.5741 48.0074L77.5631 48.9383H89.2907C89.1245 52.1881 88.6092 55.3797 87.7281 58.4716L91.1691 61.6964C92.7732 56.9339 93.621 51.9304 93.621 46.8105C93.621 20.9866 72.6344 0 46.8105 0ZM44.6828 4.43004V21.2775H26.4722C27.2701 19.5238 28.1179 17.8532 29.0571 16.3405C33.3043 9.48345 38.7816 5.26119 44.6828 4.43004ZM48.9383 4.43004C56.3937 5.46067 62.9349 11.8439 67.1904 21.2775H48.9383V4.43004ZM62.7686 7.34739C69.9997 10.273 76.2167 15.1353 80.8296 21.2775H71.7451C69.4179 15.6838 66.3509 10.938 62.7686 7.34739ZM30.6945 7.4305C28.7745 9.36709 26.9958 11.5863 25.4416 14.0963C24.0785 16.2989 22.865 18.7092 21.8094 21.2775H12.8081C17.3877 15.1852 23.5382 10.3562 30.6945 7.4305ZM9.98214 25.533H20.2552C18.3851 31.3344 17.2797 37.8174 17.0885 44.6828H4.30537C4.65445 37.7177 6.69078 31.2181 9.98214 25.533ZM24.76 25.533H44.6828V44.6828H21.344C21.5518 37.7177 22.7653 31.2015 24.76 25.533ZM73.3076 25.533H83.6721C86.9552 31.2181 88.9666 37.726 89.3073 44.6828H76.5325C76.333 37.8091 75.2027 31.3261 73.3076 25.533ZM4.30537 48.9383H17.0885C17.2797 55.8036 18.3851 62.2866 20.2552 68.088H9.98214C6.69078 62.4029 4.65445 55.9033 4.30537 48.9383ZM21.344 48.9383H44.6828V68.088H24.76C22.7653 62.4196 21.5518 55.9033 21.344 48.9383ZM67.9883 48.9383C66.8579 48.9964 65.9603 49.9273 65.9603 51.066V92.0252C65.9603 92.8896 66.4756 93.6626 67.2735 93.9867C68.0714 94.3192 68.9857 94.1363 69.5924 93.5296L76.0006 87.1131L81.3449 98.7659C81.8353 99.8297 83.0986 100.295 84.1708 99.8048L92.3826 96.048C93.4465 95.5576 93.9119 94.2943 93.4215 93.2221L87.8778 81.1205H97.8765C98.7492 81.1205 99.5388 80.5885 99.8547 79.774C100.179 78.9595 99.971 78.0369 99.331 77.4385L69.5425 49.5118C69.1186 49.1211 68.5618 48.9133 67.9883 48.9383ZM70.2158 55.9781L92.4906 76.865H84.844C84.5116 76.865 84.1874 76.9398 83.8882 77.0894L83.6638 77.2058C82.6415 77.7211 82.201 78.9512 82.6831 79.9901L88.6674 93.0558L84.3204 95.0506L78.5938 82.5584C78.3112 81.9267 77.7211 81.4779 77.0395 81.3532C76.3497 81.2285 75.6515 81.4529 75.1611 81.9516L70.2158 86.8887V55.9781ZM12.8081 72.3435H21.8094C22.865 74.9118 24.0785 77.3221 25.4416 79.5247C26.9958 82.0348 28.7745 84.2539 30.6945 86.1905C23.5382 83.2649 17.3877 78.4359 12.8081 72.3435ZM26.4722 72.3435H44.6828V89.191C38.7816 88.3598 33.3043 84.1376 29.0571 77.2889C28.1179 75.7679 27.2701 74.0972 26.4722 72.3435Z" fill="#5EDFE8"/>
</svg>
